<?xml version="1.0" encoding="UTF-8"?>
<svg id="Layer_1" xmlns="http://www.w3.org/2000/svg" version="1.1" viewBox="0 0 108 108">
  <!-- Generator: Adobe Illustrator 29.6.0, SVG Export Plug-In . SVG Version: 2.1.1 Build 156)  -->
  <defs>
    <style>
      .st0 {
        fill: #707070;
      }

      .st1 {
        fill: #caa38a;
      }

      .st2 {
        fill: #f5f5f5;
      }
    </style>
  </defs>
  <circle id="Ellipse_9" class="st2" cx="54" cy="54" r="54"/>
  <path id="Ellipse_9_-_Outline" class="st0" d="M54,1C24.72,1.02,1,24.77,1.02,54.05c0,21.28,12.75,40.49,32.35,48.79,27.01,11.31,58.07-1.42,69.37-28.43,11.25-26.88-1.3-57.81-28.11-69.24-6.53-2.76-13.54-4.18-20.63-4.16M54,0c29.82,0,54,24.18,54,54s-24.18,54-54,54S0,83.82,0,54,24.18,0,54,0Z"/>
  <g>
    <path class="st1" d="M65.96,33.3c11.42,6.59,15.33,21.2,8.74,32.62-6.59,11.42-21.2,15.33-32.62,8.74-7.15-4.13-11.66-11.65-11.93-19.91v-.77s0-.77,0-.77c.43-13.18,11.46-23.52,24.64-23.09,3.93.13,7.76,1.22,11.17,3.19M44.47,37.44c-9.14,5.28-12.27,16.96-6.99,26.1,3.41,5.91,9.72,9.55,16.54,9.55h.48c5.27-.28,9.33-4.76,9.06-10.03-.25-4.9-4.16-8.82-9.06-9.06h-.48c-5.28-.01-9.55-4.29-9.55-9.56,0-5.09,3.99-9.29,9.07-9.54h.48c-3.35-.01-6.65.87-9.55,2.55M54.02,40.85c-1.98,0-3.58,1.6-3.58,3.58s1.6,3.58,3.58,3.58,3.58-1.6,3.58-3.58-1.6-3.58-3.58-3.58"/>
    <path class="st1" d="M54.02,59.95c1.98,0,3.58,1.6,3.58,3.58s-1.6,3.58-3.58,3.58-3.58-1.6-3.58-3.58,1.6-3.58,3.58-3.58"/>
  </g>
</svg>