<?xml version="1.0" encoding="UTF-8"?>
<svg id="Layer_1" xmlns="http://www.w3.org/2000/svg" version="1.1" viewBox="0 0 108 108">
  <!-- Generator: Adobe Illustrator 29.6.0, SVG Export Plug-In . SVG Version: 2.1.1 Build 57)  -->
  <defs>
    <style>
      .st0 {
        fill: #707070;
      }

      .st1 {
        fill: #caa38a;
      }

      .st2 {
        isolation: isolate;
      }

      .st3 {
        fill: #f5f5f5;
      }
    </style>
  </defs>
  <circle id="Ellipse_8" class="st3" cx="54" cy="54" r="54"/>
  <path id="Ellipse_8_-_Outline" class="st0" d="M54,1C24.72,1.02,1,24.77,1.02,54.05c.01,21.28,12.75,40.49,32.35,48.79,27.01,11.31,58.07-1.42,69.37-28.43,11.25-26.88-1.3-57.81-28.11-69.24-6.53-2.76-13.54-4.18-20.63-4.16M54,0c29.82,0,54,24.18,54,54s-24.18,54-54,54S0,83.82,0,54,24.18,0,54,0Z"/>
  <g class="st2">
    <path class="st1" d="M27.83,77.11c0-1.03.84-1.88,1.88-1.88h1.24v-1.71c0-.94.56-1.5,1.52-1.5h1.48v-26.95h-2.06c-1.29,0-2.04-.94-2.04-1.9,0-.7.38-1.31,1.27-1.8l20.02-11.55c.89-.54,1.9-.82,2.86-.82s1.95.28,2.88.82l20.02,11.55c.87.49,1.27,1.1,1.27,1.8,0,.96-.75,1.9-2.04,1.9h-2.06v26.95h1.5c.96,0,1.5.56,1.5,1.5v1.71h1.22c1.03,0,1.9.84,1.9,1.88s-.87,1.9-1.9,1.9H29.71c-1.03,0-1.88-.87-1.88-1.9ZM54.81,68.39v-2.09c3.77-.23,6.96-2.13,6.96-6.05,0-3.63-2.93-5.04-6.23-5.81l-.73-.16v-7.01c1.97.19,3.35,1.22,3.94,3.02.23.73.7,1.1,1.36,1.1.61,0,1.31-.4,1.31-1.24,0-2.88-3.38-4.99-6.61-5.27v-2.06c0-.42-.35-.8-.8-.8s-.8.38-.8.8v2.06c-3.56.28-6.59,2.41-6.59,5.88s3.02,4.97,6,5.67l.59.14v7.31c-2.09-.16-3.56-1.05-4.31-3.09-.3-.73-.7-1.05-1.36-1.05-.7,0-1.29.47-1.29,1.27,0,.23.05.49.12.75.87,2.93,3.91,4.31,6.84,4.55v2.09c0,.45.35.82.8.82s.8-.38.8-.82ZM53.21,47.27v6.63l-.16-.05c-2.02-.49-3.7-1.38-3.7-3.3s1.88-3.02,3.87-3.28ZM54.81,56.95l.23.07c2.11.52,4.03,1.27,4.03,3.45,0,2.39-2.06,3.28-4.27,3.45v-6.96Z"/>
  </g>
</svg>