<?xml version="1.0" encoding="UTF-8"?>
<svg id="Layer_1" xmlns="http://www.w3.org/2000/svg" version="1.1" viewBox="0 0 108 108">
  <!-- Generator: Adobe Illustrator 29.6.0, SVG Export Plug-In . SVG Version: 2.1.1 Build 57)  -->
  <defs>
    <style>
      .st0 {
        fill: #707070;
      }

      .st1 {
        fill: #caa38a;
      }

      .st2 {
        isolation: isolate;
      }

      .st3 {
        fill: #f5f5f5;
      }
    </style>
  </defs>
  <circle id="Ellipse_2" class="st3" cx="54" cy="54" r="54"/>
  <path id="Ellipse_2_-_Outline" class="st0" d="M54,1C24.72,1.02,1,24.77,1.02,54.05c.01,21.28,12.75,40.49,32.35,48.79,27.01,11.31,58.07-1.42,69.37-28.43,11.25-26.88-1.3-57.81-28.11-69.24-6.53-2.76-13.54-4.18-20.63-4.16M54,0c29.82,0,54,24.18,54,54s-24.18,54-54,54S0,83.82,0,54,24.18,0,54,0Z"/>
  <g class="st2">
    <path class="st1" d="M36.23,66.14c-2.62,0-4.92-.6-6.88-1.8s-3.48-2.85-4.57-4.95-1.63-4.48-1.63-7.17c0-1.75.3-3.44.91-5.06s1.47-3.08,2.58-4.36c.69,1.48,1.76,2.67,3.22,3.55s3.21,1.32,5.26,1.32c.52,0,.96-.19,1.32-.56s.55-.82.55-1.34-.18-.94-.55-1.31-.81-.56-1.32-.56c-1.05,0-1.97-.24-2.78-.73s-1.43-1.13-1.89-1.95-.68-1.7-.68-2.67c0-1.45.43-2.79,1.3-4s2.05-2.18,3.54-2.89,3.18-1.08,5.07-1.08c1.14,0,2.24.15,3.3.45-.31.69-.55,1.41-.73,2.18s-.27,1.57-.3,2.41c-.03.61.14,1.1.5,1.48s.82.56,1.35.56.95-.16,1.3-.48.54-.79.57-1.39c.06-1.5.45-2.83,1.16-3.98s1.69-2.07,2.93-2.73,2.69-1,4.35-1c1.41,0,2.8.33,4.2,1s2.55,1.57,3.49,2.73c.33-.08.65-.14.96-.18s.59-.06.82-.06c1.73,0,3.41.39,5.02,1.17s2.93,1.87,3.97,3.26,1.56,3.01,1.56,4.85-.36,3.52-1.07,4.88-1.65,2.55-2.82,3.57-2.46,1.96-3.87,2.82-2.81,1.73-4.21,2.6-2.68,1.84-3.86,2.91-2.12,2.31-2.84,3.74-1.08,3.14-1.08,5.12c0,1.11.13,2.22.4,3.33-.62.03-1.12.05-1.49.07s-.7.02-1,.02c-1.53,0-3.02-.2-4.48-.59s-2.77-.95-3.94-1.69c1.66-1.11,2.94-2.53,3.84-4.27s1.36-3.7,1.36-5.88c0-.25,0-.5-.02-.75s-.04-.49-.07-.73c2.62-.67,4.55-1.88,5.79-3.62s1.84-3.91,1.83-6.5c0-.52-.18-.96-.55-1.34s-.81-.56-1.32-.56-.96.19-1.34.56-.56.82-.56,1.34c0,1.77-.38,3.2-1.14,4.3s-2.04,1.86-3.83,2.29c-.23-.47-.5-.9-.8-1.3s-.63-.75-1.01-1.07c-.42-.36-.79-.61-1.09-.75s-.66-.21-1.07-.21c-.55,0-.99.15-1.32.45s-.5.69-.5,1.17c0,.59.16,1.03.47,1.3s.73.66,1.27,1.16c.45.44.83,1.05,1.12,1.84s.45,1.57.45,2.36c0,1.64-.37,3.12-1.11,4.44s-1.8,2.36-3.16,3.13-3,1.15-4.91,1.15ZM74.02,79.92c-1.36,0-2.54-.38-3.53-1.14s-1.79-1.73-2.39-2.93-1-2.46-1.18-3.79c-.3.02-.64.03-1.03.05s-.93.02-1.62.02c-1.28,0-2.41-.28-3.39-.84s-1.73-1.32-2.26-2.29-.77-2.03-.73-3.2c.08-1.5.45-2.78,1.12-3.83s1.54-1.99,2.61-2.8,2.25-1.59,3.55-2.32,2.62-1.52,3.96-2.34,2.63-1.8,3.86-2.91,2.3-2.45,3.22-4.01,1.59-3.45,2.02-5.65c2.03.98,3.64,2.39,4.83,4.22s1.78,3.91,1.78,6.26c0,2.64-.88,4.7-2.65,6.19s-4.09,2.11-6.98,1.88c-.53-.05-.98.12-1.35.52s-.55.84-.55,1.36.18.97.55,1.31.82.53,1.35.56c1.44.09,2.78.03,4.03-.2s2.39-.61,3.42-1.14c.02.45.03.93.05,1.42s.02,1,.02,1.54c0,1.73-.18,3.44-.54,5.11s-.9,3.18-1.62,4.52-1.62,2.42-2.72,3.22-2.38,1.21-3.84,1.21Z"/>
  </g>
</svg>