<?xml version="1.0" encoding="UTF-8"?>
<svg id="Layer_1" xmlns="http://www.w3.org/2000/svg" version="1.1" viewBox="0 0 108 108">
  <!-- Generator: Adobe Illustrator 29.6.0, SVG Export Plug-In . SVG Version: 2.1.1 Build 57)  -->
  <defs>
    <style>
      .st0 {
        fill: #707070;
      }

      .st1 {
        fill: #caa38a;
      }

      .st2 {
        isolation: isolate;
      }

      .st3 {
        fill: #f5f5f5;
      }
    </style>
  </defs>
  <circle id="Ellipse_3" class="st3" cx="54" cy="54" r="54"/>
  <path id="Ellipse_3_-_Outline" class="st0" d="M54,1C24.72,1.02,1,24.77,1.02,54.05c.01,21.28,12.75,40.49,32.35,48.79,27.01,11.31,58.07-1.42,69.37-28.43,11.25-26.88-1.3-57.81-28.11-69.24-6.53-2.76-13.54-4.18-20.63-4.16M54,0c29.82,0,54,24.18,54,54s-24.18,54-54,54S0,83.82,0,54,24.18,0,54,0Z"/>
  <g id="_" class="st2">
    <g class="st2">
      <path class="st1" d="M37.72,63.14c-3.2,0-5.64-.81-7.31-2.44s-2.51-3.98-2.51-7.05v-3.42c0-3.08.84-5.43,2.51-7.05s4.11-2.44,7.31-2.44h5.04v22.41h-5.04ZM47.05,79.01c-1.36,0-2.44-.36-3.25-1.08s-1.5-1.72-2.1-3l-3.94-8.6c.38,0,.73,0,1.08.02s.62.02.82.02c2.97.08,5.21.17,6.74.28s2.73.24,3.62.4l1.31,6.3c.25,1.2.21,2.23-.12,3.07s-.86,1.48-1.61,1.92-1.6.66-2.57.66ZM45.97,63.16v-22.43c2.02-.22,4.27-.59,6.76-1.1s5.01-1.17,7.55-1.97,4.89-1.73,7.07-2.79v34.12c-2.14-1.05-4.45-1.96-6.91-2.75s-4.95-1.44-7.43-1.96-4.83-.89-7.03-1.12ZM75.32,74.72c-.94,0-1.77-.2-2.48-.6s-1.28-.96-1.68-1.68-.6-1.55-.6-2.48v-36.19c0-.94.2-1.77.6-2.5s.96-1.29,1.68-1.69,1.55-.6,2.48-.6,1.79.2,2.51.6,1.28.96,1.68,1.69.6,1.56.6,2.5v36.19c0,.94-.2,1.77-.6,2.48s-.96,1.28-1.68,1.68-1.55.6-2.51.6Z"/>
    </g>
  </g>
</svg>