<?xml version="1.0" encoding="UTF-8"?>
<svg id="Layer_1" xmlns="http://www.w3.org/2000/svg" version="1.1" viewBox="0 0 108 108">
  <!-- Generator: Adobe Illustrator 29.6.0, SVG Export Plug-In . SVG Version: 2.1.1 Build 57)  -->
  <defs>
    <style>
      .st0 {
        fill: #707070;
      }

      .st1 {
        fill: #caa38a;
      }

      .st2 {
        isolation: isolate;
      }

      .st3 {
        fill: #f5f5f5;
      }
    </style>
  </defs>
  <g id="Group_24">
    <circle id="Ellipse_4" class="st3" cx="54" cy="54" r="54"/>
    <path id="Ellipse_4_-_Outline" class="st0" d="M54,1C24.72,1.02,1,24.77,1.02,54.05c.01,21.28,12.75,40.49,32.35,48.79,27.01,11.31,58.07-1.42,69.37-28.43,11.25-26.88-1.3-57.81-28.11-69.24-6.53-2.76-13.54-4.18-20.63-4.16M54,0c29.82,0,54,24.18,54,54s-24.18,54-54,54S0,83.82,0,54,24.18,0,54,0Z"/>
    <g id="_" class="st2">
      <g class="st2">
        <path class="st1" d="M53.99,79.44c-2.8,0-5.47-.43-8.02-1.28-2.55-.85-4.88-2.06-6.99-3.62-2.12-1.56-3.96-3.4-5.52-5.52s-2.77-4.45-3.62-6.99c-.85-2.55-1.28-5.22-1.28-8.02s.43-5.49,1.28-8.03c.85-2.54,2.06-4.87,3.62-6.99s3.4-3.96,5.52-5.52c2.12-1.56,4.45-2.76,6.99-3.62,2.55-.86,5.22-1.29,8.02-1.29s5.49.43,8.03,1.29,4.87,2.07,6.99,3.62c2.12,1.56,3.96,3.4,5.52,5.52,1.56,2.12,2.76,4.45,3.62,6.99s1.29,5.21,1.29,8.03-.43,5.47-1.29,8.02-2.07,4.88-3.62,6.99c-1.56,2.12-3.4,3.96-5.52,5.52-2.12,1.56-4.45,2.77-6.99,3.62s-5.21,1.28-8.03,1.28ZM53.99,75.81c2.41,0,4.7-.37,6.88-1.1,2.18-.74,4.18-1.77,6-3.11s3.39-2.91,4.73-4.73c1.33-1.82,2.37-3.81,3.1-5.99.73-2.17,1.09-4.47,1.09-6.88s-.37-4.7-1.09-6.88c-.73-2.18-1.76-4.18-3.1-6-1.33-1.82-2.91-3.39-4.73-4.73s-3.82-2.37-6-3.1c-2.18-.73-4.48-1.09-6.88-1.09s-4.7.36-6.88,1.09c-2.17.73-4.17,1.76-5.99,3.1s-3.39,2.91-4.73,4.73c-1.33,1.82-2.37,3.82-3.11,6-.74,2.18-1.1,4.48-1.1,6.88s.37,4.7,1.1,6.88c.74,2.17,1.77,4.17,3.11,5.99,1.33,1.82,2.91,3.39,4.73,4.73s3.81,2.37,5.99,3.11c2.17.74,4.47,1.1,6.88,1.1ZM53.99,69.99c-2.2,0-4.26-.41-6.19-1.24-1.93-.83-3.62-1.97-5.09-3.44s-2.61-3.16-3.45-5.09c-.83-1.93-1.25-4-1.25-6.21s.42-4.26,1.25-6.19c.83-1.93,1.98-3.62,3.45-5.09s3.16-2.61,5.09-3.45c1.93-.83,3.99-1.25,6.19-1.25s4.28.42,6.21,1.25c1.93.83,3.62,1.98,5.09,3.45s2.61,3.16,3.44,5.09c.83,1.93,1.24,3.99,1.24,6.19s-.41,4.28-1.24,6.21c-.83,1.93-1.97,3.62-3.44,5.09s-3.16,2.61-5.09,3.44c-1.93.83-4,1.24-6.21,1.24ZM53.99,66.53c1.73,0,3.36-.32,4.87-.97,1.52-.64,2.85-1.54,3.99-2.69,1.15-1.15,2.04-2.48,2.69-3.99s.97-3.14.97-4.87-.32-3.35-.97-4.86-1.54-2.84-2.69-3.98c-1.15-1.15-2.48-2.04-3.99-2.69-1.52-.64-3.14-.97-4.87-.97s-3.35.32-4.86.97c-1.51.64-2.84,1.54-3.98,2.69-1.15,1.15-2.04,2.47-2.69,3.98s-.97,3.13-.97,4.86.32,3.36.97,4.87,1.54,2.85,2.69,3.99c1.15,1.15,2.47,2.04,3.98,2.69,1.51.64,3.13.97,4.86.97ZM53.99,60.73c-1.24,0-2.36-.3-3.38-.91s-1.83-1.42-2.43-2.43-.91-2.15-.91-3.4.3-2.36.91-3.38,1.42-1.83,2.43-2.43,2.14-.91,3.38-.91,2.38.3,3.4.91,1.83,1.42,2.43,2.43.91,2.14.91,3.38-.3,2.38-.91,3.4-1.42,1.83-2.43,2.43-2.15.91-3.4.91Z"/>
      </g>
    </g>
  </g>
</svg>