<?xml version="1.0" encoding="UTF-8"?>
<svg id="Layer_1" xmlns="http://www.w3.org/2000/svg" version="1.1" viewBox="0 0 108 108">
  <!-- Generator: Adobe Illustrator 29.6.0, SVG Export Plug-In . SVG Version: 2.1.1 Build 180)  -->
  <defs>
    <style>
      .st0 {
        fill: #707070;
      }

      .st1 {
        fill: #caa38a;
      }

      .st2 {
        fill: #f5f5f5;
      }
    </style>
  </defs>
  <circle id="Ellipse_9" class="st2" cx="54" cy="54" r="54"/>
  <path id="Ellipse_9_-_Outline" class="st0" d="M54,1C24.72,1.02,1,24.77,1.02,54.05c0,21.28,12.75,40.49,32.35,48.79,27.01,11.31,58.07-1.42,69.37-28.43,11.25-26.88-1.3-57.81-28.11-69.24-6.53-2.76-13.54-4.18-20.63-4.16M54,0c29.82,0,54,24.18,54,54s-24.18,54-54,54S0,83.82,0,54,24.18,0,54,0Z"/>
  <path class="st1" d="M22.96,55.75v-16.58c0-2.1.38-3.89,1.13-5.37.76-1.48,1.87-2.6,3.34-3.37,1.47-.77,3.28-1.16,5.43-1.16h27.84c2.78,0,5,.66,6.65,1.97,1.65,1.31,2.66,3.17,3.04,5.58v.43h-14.91c-2.62,0-4.86.5-6.72,1.49-1.86.99-3.27,2.42-4.25,4.28s-1.46,4.08-1.46,6.66v11.69c0,2.46.45,4.61,1.36,6.44l-5.04,4.47c-.65.58-1.2,1-1.64,1.29-.45.28-.94.42-1.47.42-.75,0-1.33-.25-1.74-.73-.41-.49-.62-1.15-.62-1.99v-5.64h-1.04c-2.15,0-3.96-.38-5.43-1.15s-2.58-1.88-3.34-3.36c-.76-1.48-1.13-3.27-1.13-5.37ZM55.47,70.84c-2.08,0-3.81-.36-5.22-1.09s-2.47-1.79-3.19-3.2c-.72-1.4-1.08-3.13-1.08-5.18v-11.69c0-2.05.36-3.77,1.08-5.19.72-1.41,1.78-2.48,3.19-3.21s3.14-1.09,5.22-1.09h20.08c2.08,0,3.81.36,5.22,1.09s2.47,1.8,3.19,3.21c.72,1.41,1.08,3.14,1.08,5.19v11.69c0,2.05-.36,3.77-1.08,5.18-.72,1.41-1.78,2.47-3.19,3.2s-3.14,1.09-5.22,1.09h-.45v5.19c0,.82-.2,1.48-.61,1.97-.4.49-.98.73-1.73.73-.52,0-1-.14-1.44-.43-.44-.29-.98-.71-1.63-1.28l-7.22-6.18h-7Z"/>
</svg>