<?xml version="1.0" encoding="UTF-8"?>
<svg id="Layer_1" xmlns="http://www.w3.org/2000/svg" version="1.1" viewBox="0 0 108 108">
  <!-- Generator: Adobe Illustrator 29.6.0, SVG Export Plug-In . SVG Version: 2.1.1 Build 180)  -->
  <defs>
    <style>
      .st0 {
        fill: #707070;
      }

      .st1 {
        fill: #caa38a;
      }

      .st2 {
        fill: #f5f5f5;
      }
    </style>
  </defs>
  <circle id="Ellipse_9" class="st2" cx="54" cy="54" r="54"/>
  <path id="Ellipse_9_-_Outline" class="st0" d="M54,1C24.72,1.02,1,24.77,1.02,54.05c0,21.28,12.75,40.49,32.35,48.79,27.01,11.31,58.07-1.42,69.37-28.43,11.25-26.88-1.3-57.81-28.11-69.24-6.53-2.76-13.54-4.18-20.63-4.16M54,0c29.82,0,54,24.18,54,54s-24.18,54-54,54S0,83.82,0,54,24.18,0,54,0Z"/>
  <path class="st1" d="M39.09,50.82c-1.69,0-3.24-.42-4.65-1.28-1.41-.85-2.54-1.98-3.39-3.39-.85-1.41-1.28-2.97-1.28-4.67s.42-3.26,1.26-4.67c.84-1.41,1.97-2.54,3.38-3.38s2.97-1.26,4.67-1.26,3.25.42,4.66,1.26,2.53,1.97,3.38,3.38c.85,1.41,1.28,2.97,1.28,4.67s-.43,3.26-1.28,4.67c-.85,1.41-1.98,2.54-3.38,3.39-1.4.85-2.96,1.28-4.66,1.28ZM39.09,75.83c-1.69,0-3.24-.43-4.65-1.28-1.41-.85-2.54-1.98-3.39-3.39-.85-1.41-1.28-2.96-1.28-4.65s.42-3.26,1.26-4.67c.84-1.41,1.97-2.54,3.38-3.39,1.41-.85,2.97-1.28,4.67-1.28s3.25.42,4.66,1.26c1.4.84,2.53,1.97,3.38,3.38.85,1.41,1.28,2.98,1.28,4.69s-.43,3.24-1.28,4.65c-.85,1.41-1.98,2.54-3.38,3.39-1.4.85-2.96,1.28-4.66,1.28ZM39.09,72.67c1.11,0,2.13-.28,3.07-.84s1.69-1.31,2.25-2.25.84-1.96.84-3.07-.28-2.15-.84-3.09c-.56-.94-1.31-1.69-2.25-2.25-.94-.56-1.96-.84-3.07-.84s-2.13.28-3.07.84c-.94.56-1.69,1.31-2.25,2.25-.56.94-.84,1.97-.84,3.09s.28,2.13.84,3.07,1.31,1.69,2.25,2.25c.94.56,1.96.84,3.07.84ZM37.98,46.5c.48,0,.84-.2,1.1-.61l4.52-7.09c.19-.3.28-.6.28-.89,0-.27-.11-.51-.33-.71-.22-.2-.49-.3-.79-.3-.39,0-.71.2-.97.6l-3.85,6.18-1.69-2.14c-.14-.19-.29-.32-.44-.41s-.33-.13-.55-.13c-.29,0-.54.11-.75.32-.21.22-.31.48-.31.8s.09.61.28.84l2.42,2.92c.16.19.32.34.49.44.17.11.36.16.59.16ZM54.87,43.15c-.46,0-.85-.16-1.17-.48-.32-.32-.48-.71-.48-1.17s.16-.83.48-1.15c.32-.32.71-.48,1.17-.48h21.7c.46,0,.85.16,1.18.48.32.32.49.7.49,1.15s-.16.85-.49,1.17-.72.48-1.18.48h-21.7ZM54.87,68.14c-.46,0-.85-.16-1.17-.48s-.48-.7-.48-1.15.16-.85.48-1.17c.32-.32.71-.48,1.17-.48h21.7c.46,0,.85.16,1.18.48.32.32.49.71.49,1.17s-.16.83-.49,1.15c-.32.32-.72.48-1.18.48h-21.7Z"/>
</svg>