<?xml version="1.0" encoding="UTF-8"?>
<svg id="Layer_1" xmlns="http://www.w3.org/2000/svg" version="1.1" viewBox="0 0 108 108">
  <!-- Generator: Adobe Illustrator 29.6.0, SVG Export Plug-In . SVG Version: 2.1.1 Build 180)  -->
  <defs>
    <style>
      .st0 {
        fill: #707070;
      }

      .st1 {
        fill: #caa38a;
      }

      .st2 {
        fill: #f5f5f5;
      }
    </style>
  </defs>
  <circle id="Ellipse_9" class="st2" cx="54" cy="54" r="54"/>
  <path id="Ellipse_9_-_Outline" class="st0" d="M54,1C24.72,1.02,1,24.77,1.02,54.05c0,21.28,12.75,40.49,32.35,48.79,27.01,11.31,58.07-1.42,69.37-28.43,11.25-26.88-1.3-57.81-28.11-69.24-6.53-2.76-13.54-4.18-20.63-4.16M54,0c29.82,0,54,24.18,54,54s-24.18,54-54,54S0,83.82,0,54,24.18,0,54,0Z"/>
  <path class="st1" d="M28.15,42.7l-6.29-1.32c-.35-.07-.62-.26-.83-.56-.21-.3-.29-.63-.25-.99.06-.39.25-.7.57-.92.32-.22.68-.29,1.07-.21l6.27,1.34c.37.09.66.28.86.59.2.31.27.65.19,1-.07.38-.27.66-.59.86s-.66.27-1.01.19ZM30.33,35.5l-4.52-4.52c-.29-.29-.43-.61-.42-.97,0-.36.15-.68.42-.95s.59-.41.95-.42c.36,0,.68.13.97.42l4.52,4.52c.27.27.41.6.4.97,0,.38-.14.69-.4.95-.26.27-.58.41-.95.41s-.7-.14-.97-.41ZM46.71,72.1l-14.24-14.24c-.45-.45-.67-.99-.67-1.63s.22-1.19.67-1.63c.45-.46.99-.69,1.63-.69s1.19.23,1.65.69l9.08,9.08c.07-.35.15-.7.25-1.06.09-.36.21-.73.33-1.1l-13.06-13.05c-.46-.45-.69-.99-.69-1.64s.23-1.2.69-1.64c.45-.45.99-.67,1.63-.67s1.19.22,1.63.67l12.02,12.02c.2-.27.41-.55.62-.82s.42-.54.64-.8l-13.12-13.14c-.46-.45-.69-.99-.69-1.63s.23-1.19.69-1.63c.45-.46.99-.69,1.63-.69s1.19.23,1.63.69l13.31,13.29c.29-.2.58-.39.87-.55.29-.17.57-.31.84-.44l-11.46-11.46c-.45-.45-.67-.99-.67-1.63s.22-1.19.67-1.65c.46-.45,1.01-.67,1.65-.67s1.19.22,1.63.67l16.02,16.04c.27.27.52.41.72.42.21,0,.38-.07.53-.23.13-.13.2-.31.22-.53s-.04-.51-.17-.85l-2.36-6.59c-.36-1.08-.54-1.95-.53-2.59,0-.65.26-1.22.75-1.71.43-.43.91-.66,1.43-.68s.99.17,1.4.57c.25.25.52.63.82,1.15.3.52.61,1.09.93,1.71.32.62.63,1.21.93,1.77.55,1.04,1.07,2.04,1.57,3s.96,1.91,1.39,2.83c.43.92.83,1.83,1.19,2.71.36.89.68,1.76.95,2.63,1.04,3.04,1.28,5.86.71,8.46-.56,2.6-2.05,5.11-4.47,7.53-1.53,1.51-3.17,2.67-4.93,3.46-1.76.79-3.57,1.2-5.43,1.21-1.86.01-3.71-.38-5.55-1.19-1.84-.81-3.61-2.05-5.29-3.74ZM38.39,33.36c-.37.09-.72.02-1.03-.19-.31-.22-.51-.5-.59-.86l-1.36-6.22c-.07-.38,0-.72.22-1.04.22-.32.5-.51.86-.58.37-.07.72,0,1.04.19.32.2.51.49.58.86l1.36,6.25c.09.35.02.68-.21,1-.22.32-.52.52-.88.59ZM57.85,40.97c-.07.58-.09,1.17-.05,1.79.04.62.12,1.27.25,1.95l-7.85-7.87c.04-.06.08-.1.11-.13.45-.45.99-.67,1.63-.67s1.19.22,1.65.67l4.26,4.26ZM75.57,72.38c-1.25,1.25-2.61,2.26-4.06,3.03s-2.95,1.25-4.47,1.47c1.04-.69,2.02-1.51,2.96-2.44,2.72-2.71,4.45-5.62,5.19-8.72.73-3.1.51-6.5-.67-10.17-.27-.87-.59-1.75-.94-2.66-.35-.91-.75-1.83-1.18-2.77-.43-.94-.89-1.89-1.37-2.85-.48-.96-.99-1.95-1.52-2.94-.23-.43-.46-.87-.69-1.32-.23-.45-.46-.89-.69-1.34.13-.37.34-.71.63-.99.43-.43.91-.66,1.43-.68s.99.18,1.41.59c.24.23.52.61.82,1.12s.62,1.09.94,1.71c.32.62.63,1.21.92,1.77.55,1.04,1.07,2.04,1.57,3s.96,1.91,1.41,2.83c.44.92.83,1.83,1.19,2.71.35.89.67,1.75.94,2.6,1.04,3.05,1.27,5.88.71,8.48s-2.06,5.12-4.5,7.55Z"/>
</svg>