<?xml version="1.0" encoding="UTF-8"?>
<svg id="Layer_1" xmlns="http://www.w3.org/2000/svg" version="1.1" viewBox="0 0 108 108">
  <!-- Generator: Adobe Illustrator 29.6.0, SVG Export Plug-In . SVG Version: 2.1.1 Build 57)  -->
  <defs>
    <style>
      .st0 {
        fill: #707070;
      }

      .st1 {
        fill: #caa38a;
      }

      .st2 {
        isolation: isolate;
      }

      .st3 {
        fill: #f5f5f5;
      }
    </style>
  </defs>
  <circle id="Ellipse_6" class="st3" cx="54" cy="54" r="54"/>
  <path id="Ellipse_6_-_Outline" class="st0" d="M54,1C24.72,1.02,1,24.77,1.02,54.05c.01,21.28,12.75,40.49,32.35,48.79,27.01,11.31,58.07-1.42,69.37-28.43,11.25-26.88-1.3-57.81-28.11-69.24-6.53-2.76-13.54-4.18-20.63-4.16M54,0c29.82,0,54,24.18,54,54s-24.18,54-54,54S0,83.82,0,54,24.18,0,54,0Z"/>
  <g id="_" class="st2">
    <g class="st2">
      <path class="st1" d="M54,77.74c-3.3,0-6.39-.62-9.28-1.86s-5.43-2.96-7.62-5.16-3.9-4.73-5.14-7.62-1.86-5.97-1.86-9.27.62-6.39,1.86-9.28,2.96-5.43,5.14-7.62,4.73-3.9,7.62-5.14,5.98-1.86,9.28-1.86,6.39.62,9.28,1.86,5.43,2.96,7.62,5.14,3.9,4.73,5.14,7.62,1.86,5.98,1.86,9.28-.62,6.39-1.86,9.27-2.96,5.42-5.14,7.62-4.73,3.91-7.62,5.16-5.98,1.86-9.28,1.86ZM30.33,66.82c1.39,2.53,3.05,4.73,4.99,6.59s4.19,3.41,6.75,4.66h-7.5c-2.83,0-4.24-1.38-4.24-4.15v-7.1ZM45.61,48.07l7.17,7.2c.34.34.75.52,1.21.52s.86-.17,1.21-.52l10.99-11.02c.34-.33.52-.73.52-1.2s-.17-.87-.52-1.2-.74-.5-1.18-.5-.84.16-1.18.5l-9.84,9.84-5.98-6c-.34-.34-.74-.52-1.2-.52s-.85.17-1.2.52-.5.72-.5,1.18.16.86.5,1.18ZM77.67,66.82v7.1c0,2.77-1.41,4.15-4.24,4.15h-7.48c2.55-1.25,4.79-2.8,6.73-4.66s3.6-4.05,4.99-6.59Z"/>
    </g>
  </g>
</svg>