<?xml version="1.0" encoding="UTF-8"?>
<svg id="Layer_1" xmlns="http://www.w3.org/2000/svg" version="1.1" viewBox="0 0 108 108">
  <!-- Generator: Adobe Illustrator 29.6.0, SVG Export Plug-In . SVG Version: 2.1.1 Build 57)  -->
  <defs>
    <style>
      .st0 {
        fill: #707070;
      }

      .st1 {
        fill: #caa38a;
      }

      .st2 {
        isolation: isolate;
      }

      .st3 {
        fill: #f5f5f5;
      }
    </style>
  </defs>
  <circle id="Ellipse_9" class="st3" cx="54" cy="54" r="54"/>
  <path id="Ellipse_9_-_Outline" class="st0" d="M54,1C24.72,1.02,1,24.77,1.02,54.05c.01,21.28,12.75,40.49,32.35,48.79,27.01,11.31,58.07-1.42,69.37-28.43,11.25-26.88-1.3-57.81-28.11-69.24-6.53-2.76-13.54-4.18-20.63-4.16M54,0c29.82,0,54,24.18,54,54s-24.18,54-54,54S0,83.82,0,54,24.18,0,54,0Z"/>
  <g id="_" class="st2">
    <g class="st2">
      <path class="st1" d="M54,77.91c-3.3,0-6.39-.62-9.28-1.86s-5.43-2.96-7.62-5.16-3.9-4.73-5.14-7.62-1.86-5.97-1.86-9.27.62-6.39,1.86-9.28,2.96-5.43,5.14-7.62,4.73-3.9,7.62-5.14,5.98-1.86,9.28-1.86,6.39.62,9.28,1.86,5.43,2.96,7.62,5.14,3.9,4.73,5.14,7.62,1.86,5.98,1.86,9.28-.62,6.39-1.86,9.27-2.96,5.42-5.14,7.62-4.73,3.91-7.62,5.16-5.98,1.86-9.28,1.86ZM43.9,66.21l13.88-6.8c.73-.34,1.29-.9,1.66-1.66l6.75-13.85c.27-.55.33-1.03.2-1.44s-.41-.69-.82-.83-.91-.08-1.49.19l-13.8,6.75c-.38.17-.7.39-.97.67s-.51.61-.71,1.02l-6.77,13.88c-.25.53-.3,1-.16,1.41s.42.68.83.83.89.1,1.42-.15ZM54.02,57c-.81,0-1.51-.29-2.1-.88s-.88-1.29-.88-2.1.29-1.51.88-2.09,1.29-.87,2.1-.87,1.51.29,2.09.87.87,1.27.87,2.09-.29,1.51-.87,2.1-1.27.88-2.09.88Z"/>
    </g>
  </g>
</svg>