<svg id="Group_1" data-name="Group 1" xmlns="http://www.w3.org/2000/svg" width="207.599" height="207.599" viewBox="0 0 207.599 207.599">
  <path id="Path_1" data-name="Path 1" d="M70.433,133.866a63.433,63.433,0,1,1,63.433-63.433,63.433,63.433,0,0,1-63.433,63.433m0-115.333a51.9,51.9,0,1,0,51.9,51.9,51.9,51.9,0,0,0-51.9-51.9" transform="translate(33.367 33.367)" fill="#595551"/>
  <path id="Path_2" data-name="Path 2" d="M41.833,70.666A28.833,28.833,0,1,1,70.666,41.833,28.833,28.833,0,0,1,41.833,70.666m0-46.133a17.3,17.3,0,1,0,17.3,17.3,17.3,17.3,0,0,0-17.3-17.3" transform="translate(61.966 61.966)" fill="#595551"/>
  <path id="Path_3" data-name="Path 3" d="M22.767,43.32A5.767,5.767,0,0,1,17,37.553V7.567a5.767,5.767,0,0,1,11.533,0V37.553a5.767,5.767,0,0,1-5.767,5.767" transform="translate(81.033 8.58)" fill="#595551"/>
  <path id="Path_4" data-name="Path 4" d="M22.767,67.366A5.767,5.767,0,0,1,17,61.6V32.767a5.767,5.767,0,0,1,11.533,0V61.6a5.767,5.767,0,0,1-5.767,5.767" transform="translate(81.033 128.699)" fill="#595551"/>
  <path id="Path_5" data-name="Path 5" d="M35.79,28.533H7.937A5.767,5.767,0,0,1,7.937,17H35.79a5.767,5.767,0,1,1,0,11.533" transform="translate(10.344 81.033)" fill="#595551"/>
  <path id="Path_6" data-name="Path 6" d="M62.176,28.533H32.767a5.767,5.767,0,0,1,0-11.533h29.41a5.767,5.767,0,1,1,0,11.533" transform="translate(128.699 81.033)" fill="#595551"/>
  <path id="Path_7" data-name="Path 7" d="M0,0H207.6V207.6H0Z" fill="none"/>
</svg>
