<?xml version="1.0" encoding="UTF-8"?>
<svg id="Layer_1" xmlns="http://www.w3.org/2000/svg" version="1.1" viewBox="0 0 108 108">
  <!-- Generator: Adobe Illustrator 29.6.0, SVG Export Plug-In . SVG Version: 2.1.1 Build 57)  -->
  <defs>
    <style>
      .st0 {
        fill: #707070;
      }

      .st1 {
        fill: #caa38a;
      }

      .st2 {
        isolation: isolate;
      }

      .st3 {
        fill: #f5f5f5;
      }
    </style>
  </defs>
  <circle id="Ellipse_5" class="st3" cx="54" cy="54" r="54"/>
  <path id="Ellipse_5_-_Outline" class="st0" d="M54,1C24.72,1.02,1,24.77,1.02,54.05c.01,21.28,12.75,40.49,32.35,48.79,27.01,11.31,58.07-1.42,69.37-28.43,11.25-26.88-1.3-57.81-28.11-69.24-6.53-2.76-13.54-4.18-20.63-4.16M54,0c29.82,0,54,24.18,54,54s-24.18,54-54,54S0,83.82,0,54,24.18,0,54,0Z"/>
  <g id="_" class="st2">
    <g class="st2">
      <path class="st1" d="M20.62,71.56c-1.24,0-2.12-.24-2.65-.71s-.79-1.16-.79-2.04c0-1.34.33-2.71,1-4.11s1.62-2.69,2.86-3.86c1.24-1.17,2.75-2.12,4.51-2.84,1.76-.72,3.75-1.08,5.95-1.08,1.82,0,3.44.24,4.85.71,1.41.48,2.67,1.08,3.76,1.81-1.05.82-1.98,1.77-2.78,2.84s-1.43,2.18-1.88,3.33c-.46,1.15-.7,2.24-.72,3.28-.03,1.04.21,1.93.72,2.68h-14.82ZM31.5,53.92c-1.21,0-2.33-.33-3.37-1s-1.87-1.56-2.49-2.7-.94-2.4-.94-3.79c-.01-1.39.3-2.64.94-3.75.64-1.11,1.47-1.98,2.51-2.63s2.15-.97,3.35-.97,2.33.32,3.37.95,1.87,1.5,2.49,2.6.94,2.35.94,3.76-.31,2.68-.94,3.82-1.45,2.04-2.48,2.71c-1.03.66-2.16,1-3.38,1ZM41.73,71.56c-1.54,0-2.61-.22-3.23-.65-.62-.44-.93-1.08-.93-1.94,0-1.26.38-2.59,1.13-3.97.75-1.39,1.85-2.69,3.28-3.91,1.43-1.22,3.16-2.21,5.19-2.97,2.02-.76,4.3-1.14,6.83-1.14s4.82.38,6.85,1.14c2.02.76,3.75,1.75,5.18,2.97s2.52,2.52,3.28,3.91,1.14,2.71,1.14,3.97c0,.86-.31,1.51-.94,1.94s-1.71.65-3.24.65h-24.53ZM54.02,53.47c-1.39,0-2.68-.38-3.87-1.14-1.19-.76-2.14-1.79-2.86-3.09s-1.08-2.75-1.08-4.37.36-3.02,1.08-4.3,1.68-2.29,2.86-3.03c1.18-.74,2.47-1.11,3.87-1.11s2.68.36,3.87,1.09c1.18.73,2.14,1.73,2.86,3s1.08,2.71,1.08,4.31-.36,3.09-1.08,4.39-1.68,2.33-2.86,3.1c-1.19.76-2.47,1.14-3.87,1.14ZM87.38,71.56h-14.84c.51-.74.75-1.63.73-2.68s-.26-2.14-.71-3.28c-.46-1.15-1.08-2.26-1.88-3.33s-1.73-2.02-2.78-2.84c1.08-.73,2.33-1.33,3.75-1.81,1.42-.48,3.04-.71,4.86-.71,2.2,0,4.18.36,5.95,1.08,1.76.72,3.27,1.67,4.51,2.84,1.24,1.17,2.2,2.46,2.86,3.86s1,2.77,1,4.11c0,.89-.26,1.57-.79,2.04s-1.41.71-2.65.71ZM76.48,53.92c-1.21,0-2.33-.33-3.36-1-1.03-.66-1.86-1.57-2.49-2.71-.63-1.14-.95-2.41-.95-3.82s.32-2.66.95-3.76c.63-1.1,1.46-1.97,2.5-2.6s2.15-.95,3.35-.95,2.33.32,3.37.97,1.87,1.52,2.5,2.63c.63,1.11.95,2.36.95,3.75s-.32,2.66-.95,3.79c-.63,1.13-1.46,2.03-2.49,2.7-1.03.66-2.16,1-3.38,1Z"/>
    </g>
  </g>
</svg>