<?xml version="1.0" encoding="UTF-8"?>
<svg id="Layer_1" xmlns="http://www.w3.org/2000/svg" version="1.1" viewBox="0 0 108 108">
  <!-- Generator: Adobe Illustrator 29.6.0, SVG Export Plug-In . SVG Version: 2.1.1 Build 57)  -->
  <defs>
    <style>
      .st0 {
        fill: #707070;
      }

      .st1 {
        fill: #caa38a;
      }

      .st2 {
        isolation: isolate;
      }

      .st3 {
        fill: #f5f5f5;
      }
    </style>
  </defs>
  <circle id="Ellipse_10" class="st3" cx="54" cy="54" r="54"/>
  <path id="Ellipse_10_-_Outline" class="st0" d="M54,1C24.72,1.02,1,24.77,1.02,54.05c.01,21.28,12.75,40.49,32.35,48.79,27.01,11.31,58.07-1.42,69.37-28.43,11.25-26.88-1.3-57.81-28.11-69.24-6.53-2.76-13.54-4.18-20.63-4.16M54,0c29.82,0,54,24.18,54,54s-24.18,54-54,54S0,83.82,0,54,24.18,0,54,0Z"/>
  <g id="_" class="st2">
    <g class="st2">
      <path class="st1" d="M34.97,76.99c-.48,0-.9-.18-1.25-.53s-.53-.76-.53-1.23v-38.95c0-1.06.25-1.92.74-2.57s1.14-1.15,1.93-1.51c.59-.27,1.18-.49,1.76-.67s1.26-.31,2.05-.4,1.79-.13,3.01-.13c2.17,0,4.18.21,6.01.63s3.61.91,5.33,1.48,3.47,1.06,5.25,1.49,3.7.64,5.77.64,3.6-.16,4.75-.49,2.01-.49,2.59-.49c.69,0,1.27.17,1.73.52s.7.84.7,1.48v23.79c0,1.08-.24,1.94-.73,2.59s-1.13,1.15-1.95,1.51c-.59.27-1.18.49-1.76.67s-1.26.31-2.04.4-1.78.13-3,.13c-2.06,0-3.98-.21-5.77-.64s-3.53-.92-5.25-1.48-3.5-1.05-5.33-1.48-3.84-.64-6.01-.64c-1.72,0-3.11.15-4.18.46s-1.75.52-2.05.64v13.03c0,.48-.17.9-.52,1.24s-.77.52-1.27.52Z"/>
    </g>
  </g>
</svg>