<?xml version="1.0" encoding="UTF-8"?>
<svg id="Layer_1" xmlns="http://www.w3.org/2000/svg" version="1.1" viewBox="0 0 108 108">
  <!-- Generator: Adobe Illustrator 29.6.0, SVG Export Plug-In . SVG Version: 2.1.1 Build 180)  -->
  <defs>
    <style>
      .st0 {
        fill: #707070;
      }

      .st1 {
        fill: #caa38a;
      }

      .st2 {
        fill: #f5f5f5;
      }
    </style>
  </defs>
  <circle id="Ellipse_9" class="st2" cx="54" cy="54" r="54"/>
  <path id="Ellipse_9_-_Outline" class="st0" d="M54,1C24.72,1.02,1,24.77,1.02,54.05c0,21.28,12.75,40.49,32.35,48.79,27.01,11.31,58.07-1.42,69.37-28.43,11.25-26.88-1.3-57.81-28.11-69.24-6.53-2.76-13.54-4.18-20.63-4.16M54,0c29.82,0,54,24.18,54,54s-24.18,54-54,54S0,83.82,0,54,24.18,0,54,0Z"/>
  <path class="st1" d="M39.76,42.34c0-1.83.37-3.54,1.1-5.13s1.75-2.98,3.04-4.18,2.81-2.13,4.53-2.8,3.58-1,5.57-1,3.85.33,5.58,1,3.25,1.6,4.55,2.8,2.31,2.59,3.03,4.18,1.09,3.3,1.09,5.13c0,1.65-.18,3.1-.54,4.35s-.82,2.49-1.38,3.69-1.14,2.53-1.74,3.98-1.13,3.16-1.61,5.14-.8,4.39-.97,7.23c-.03.38-.16.69-.38.92s-.55.34-.96.34h-13.33c-.41,0-.73-.11-.95-.34s-.34-.53-.37-.92c-.17-2.84-.49-5.25-.97-7.23s-1.01-3.69-1.61-5.14-1.17-2.77-1.74-3.98-1.03-2.44-1.39-3.69-.55-2.71-.55-4.35ZM47.27,72.6c-.35,0-.65-.12-.89-.36s-.36-.54-.36-.89.12-.63.36-.87.54-.36.89-.36h13.48c.34,0,.63.12.87.36s.36.53.36.87-.12.65-.36.89-.53.36-.87.36h-13.48ZM54,78.77c-1.66,0-3.1-.37-4.31-1.12s-1.86-1.73-1.93-2.95h12.5c-.1,1.22-.76,2.2-1.97,2.95s-2.64,1.12-4.29,1.12Z"/>
</svg>