<?xml version="1.0" encoding="UTF-8"?>
<svg id="Layer_1" xmlns="http://www.w3.org/2000/svg" version="1.1" viewBox="0 0 76 86">
  <!-- Generator: Adobe Illustrator 29.6.0, SVG Export Plug-In . SVG Version: 2.1.1 Build 57)  -->
  <defs>
    <style>
      .st0 {
        fill: #595551;
      }

      .st1 {
        isolation: isolate;
      }
    </style>
  </defs>
  <g id="_" class="st1">
    <g class="st1">
      <path class="st0" d="M38.02,82.22c-5.3,0-10.01-.42-14.15-1.25-4.14-.83-7.63-1.96-10.49-3.38-2.86-1.42-5.03-3.02-6.52-4.82-1.49-1.79-2.23-3.66-2.23-5.61s.53-3.56,1.58-5.12,2.46-2.95,4.22-4.17,3.71-2.26,5.85-3.11,4.32-1.51,6.54-1.97,4.28-.69,6.21-.69v5.13c-1.69.02-3.53.26-5.52.72-1.99.46-3.88,1.08-5.66,1.88-1.78.8-3.24,1.75-4.38,2.85-1.14,1.1-1.71,2.31-1.71,3.62,0,1.52.65,2.92,1.95,4.18s3.13,2.36,5.48,3.27,5.13,1.62,8.33,2.13,6.7.76,10.49.76,7.26-.25,10.46-.76,5.98-1.22,8.33-2.14,4.19-2.02,5.5-3.27,1.97-2.64,1.97-4.17c0-1.31-.57-2.52-1.72-3.62s-2.61-2.05-4.39-2.85-3.66-1.42-5.64-1.88-3.83-.7-5.54-.72v-5.13c1.95,0,4.03.23,6.24.69s4.39,1.11,6.54,1.97,4.1,1.89,5.85,3.11,3.16,2.61,4.2,4.17,1.56,3.26,1.56,5.12c0,1.95-.74,3.81-2.21,5.61s-3.64,3.4-6.5,4.82-6.36,2.54-10.49,3.38-8.85,1.25-14.15,1.25ZM24.8,18.27c0-2.44.59-4.66,1.78-6.66,1.18-2,2.77-3.6,4.76-4.8,1.99-1.2,4.21-1.79,6.64-1.79s4.69.6,6.68,1.79,3.58,2.79,4.76,4.8,1.78,4.22,1.78,6.66c0,2.06-.43,3.97-1.3,5.73s-2.05,3.26-3.55,4.5-3.2,2.1-5.1,2.57v22.25c0,2.6-.11,4.9-.32,6.89s-.47,3.67-.79,5.03-.67,2.38-1.05,3.08-.76,1.04-1.11,1.04-.72-.35-1.09-1.04c-.38-.69-.73-1.72-1.05-3.08-.33-1.36-.6-3.04-.81-5.03s-.32-4.29-.32-6.89v-22.25c-1.9-.47-3.6-1.32-5.1-2.57-1.5-1.24-2.68-2.74-3.53-4.5-.86-1.76-1.28-3.67-1.28-5.73ZM34.22,18.97c1.24,0,2.31-.45,3.2-1.35.89-.9,1.34-1.96,1.34-3.18s-.45-2.27-1.34-3.16c-.89-.89-1.96-1.34-3.2-1.34s-2.24.45-3.15,1.34c-.9.89-1.35,1.95-1.35,3.16s.45,2.28,1.35,3.18c.9.9,1.95,1.35,3.15,1.35Z"/>
    </g>
  </g>
</svg>