<?xml version="1.0" encoding="UTF-8"?>
<svg id="Layer_1" xmlns="http://www.w3.org/2000/svg" version="1.1" viewBox="0 0 108 108">
  <!-- Generator: Adobe Illustrator 29.6.0, SVG Export Plug-In . SVG Version: 2.1.1 Build 180)  -->
  <defs>
    <style>
      .st0 {
        fill: none;
        stroke: #caa38a;
        stroke-miterlimit: 10;
      }

      .st1 {
        fill: #707070;
      }

      .st2 {
        fill: #caa38a;
      }

      .st3 {
        fill: #f5f5f5;
      }
    </style>
  </defs>
  <circle id="Ellipse_9" class="st3" cx="53.94" cy="53.88" r="54"/>
  <path id="Ellipse_9_-_Outline" class="st1" d="M54,1C24.72,1.02,1,24.77,1.02,54.05c0,21.28,12.75,40.49,32.35,48.79,27.01,11.31,58.07-1.42,69.37-28.43,11.25-26.88-1.3-57.81-28.11-69.24-6.53-2.76-13.54-4.18-20.63-4.16M54,0c29.82,0,54,24.18,54,54s-24.18,54-54,54S0,83.82,0,54,24.18,0,54,0Z"/>
  <g>
    <path class="st2" d="M77.17,41.05v7.31c0,1.58-.45,2.82-1.37,3.73-.92.9-2.18,1.35-3.8,1.35h-36.13c-1.62,0-2.88-.45-3.8-1.35-.91-.91-1.36-2.15-1.36-3.73v-7.31c0-1.58.45-2.83,1.36-3.73.92-.9,2.18-1.35,3.8-1.35h36.13c1.62,0,2.88.45,3.8,1.35.92.9,1.37,2.15,1.37,3.73Z"/>
    <path class="st2" d="M43.36,65.05v3.98c0,.86-.25,1.54-.75,2.03-.5.49-1.19.74-2.07.74h-19.68c-.88,0-1.57-.25-2.07-.74-.5-.5-.74-1.17-.74-2.03v-3.98c0-.86.25-1.54.74-2.03.5-.49,1.19-.74,2.07-.74h19.68c.88,0,1.57.25,2.07.74.5.49.75,1.17.75,2.03Z"/>
    <path class="st2" d="M89.82,65.05v3.98c0,.86-.25,1.54-.75,2.03-.5.49-1.19.74-2.07.74h-19.68c-.88,0-1.57-.25-2.07-.74-.5-.5-.74-1.17-.74-2.03v-3.98c0-.86.25-1.54.74-2.03.5-.49,1.19-.74,2.07-.74h19.68c.88,0,1.57.25,2.07.74.5.49.75,1.17.75,2.03Z"/>
    <line class="st0" x1="64.52" y1="52.97" x2="76.8" y2="62.38"/>
    <line class="st0" x1="43.36" y1="52.97" x2="31.08" y2="62.38"/>
  </g>
</svg>