<?xml version="1.0" encoding="UTF-8"?>
<svg id="Layer_1" xmlns="http://www.w3.org/2000/svg" version="1.1" viewBox="0 0 108 108">
  <!-- Generator: Adobe Illustrator 29.6.0, SVG Export Plug-In . SVG Version: 2.1.1 Build 180)  -->
  <defs>
    <style>
      .st0 {
        fill: #707070;
      }

      .st1 {
        fill: #caa38a;
      }

      .st2 {
        fill: #f5f5f5;
      }
    </style>
  </defs>
  <circle id="Ellipse_9" class="st2" cx="54" cy="54" r="54"/>
  <path id="Ellipse_9_-_Outline" class="st0" d="M54,1C24.72,1.02,1,24.77,1.02,54.05c0,21.28,12.75,40.49,32.35,48.79,27.01,11.31,58.07-1.42,69.37-28.43,11.25-26.88-1.3-57.81-28.11-69.24-6.53-2.76-13.54-4.18-20.63-4.16M54,0c29.82,0,54,24.18,54,54s-24.18,54-54,54S0,83.82,0,54,24.18,0,54,0Z"/>
  <path class="st1" d="M54,76.04c-3.01,0-5.85-.58-8.51-1.73-2.66-1.15-5-2.74-7.04-4.77s-3.62-4.37-4.78-7.04c-1.15-2.67-1.73-5.5-1.73-8.52,0-2.85.52-5.55,1.56-8.09,1.04-2.54,2.48-4.81,4.32-6.8,1.84-1.99,3.98-3.6,6.42-4.84s5.06-1.98,7.87-2.23v22.15c0,.29.03.53.1.74.06.2.21.4.42.6l15.56,15.26c-2,1.69-4.22,2.98-6.66,3.89-2.44.91-4.95,1.36-7.54,1.36ZM55.02,52.09v-20.12c2.29.1,4.53.58,6.72,1.43,2.19.85,4.21,2.02,6.06,3.5,1.85,1.48,3.4,3.21,4.66,5.17l-17.44,10.03ZM76.05,53.99c0,2.75-.51,5.4-1.52,7.95s-2.41,4.8-4.18,6.74l-14.11-13.94,17.66-10.16c.69,1.38,1.22,2.89,1.6,4.52.37,1.63.56,3.26.56,4.88Z"/>
</svg>