<?xml version="1.0" encoding="UTF-8"?>
<svg id="Layer_1" xmlns="http://www.w3.org/2000/svg" version="1.1" viewBox="0 0 108 108">
  <!-- Generator: Adobe Illustrator 29.6.0, SVG Export Plug-In . SVG Version: 2.1.1 Build 180)  -->
  <defs>
    <style>
      .st0 {
        fill: #707070;
      }

      .st1 {
        fill: #caa38a;
      }

      .st2 {
        fill: #f5f5f5;
      }
    </style>
  </defs>
  <circle id="Ellipse_9" class="st2" cx="54" cy="54" r="54"/>
  <path id="Ellipse_9_-_Outline" class="st0" d="M54,1C24.72,1.02,1,24.77,1.02,54.05c0,21.28,12.75,40.49,32.35,48.79,27.01,11.31,58.07-1.42,69.37-28.43,11.25-26.88-1.3-57.81-28.11-69.24-6.53-2.76-13.54-4.18-20.63-4.16M54,0c29.82,0,54,24.18,54,54s-24.18,54-54,54S0,83.82,0,54,24.18,0,54,0Z"/>
  <path class="st1" d="M31.52,72.02v-29.09c0-.72.15-1.34.46-1.87.31-.53.79-.97,1.44-1.33l10.25-5.88c.19-.12.39-.23.6-.33s.42-.21.6-.29v35.81l-9.08,4.91c-.68.38-1.28.56-1.82.56-.78,0-1.38-.22-1.82-.65s-.65-1.04-.65-1.84ZM47.84,68.62v-35.77c.2.04.41.11.62.19s.41.19.59.3l10.68,6.53v35.27c-.16-.04-.32-.1-.49-.17-.17-.07-.33-.15-.51-.24l-10.89-6.12ZM62.67,75.09v-35.62l9.53-5.3c.68-.37,1.28-.56,1.82-.56.78,0,1.38.22,1.82.65s.65,1.04.65,1.84v29.11c0,.72-.16,1.34-.46,1.87-.31.53-.79.97-1.44,1.33l-11.26,6.4c-.1.06-.21.11-.31.16-.11.05-.22.09-.33.12Z"/>
</svg>