<?xml version="1.0" encoding="UTF-8"?>
<svg id="Layer_1" xmlns="http://www.w3.org/2000/svg" version="1.1" viewBox="0 0 72 86">
  <!-- Generator: Adobe Illustrator 29.6.0, SVG Export Plug-In . SVG Version: 2.1.1 Build 57)  -->
  <defs>
    <style>
      .st0 {
        fill: #595551;
      }

      .st1 {
        isolation: isolate;
      }
    </style>
  </defs>
  <g id="_" class="st1">
    <g class="st1">
      <path class="st0" d="M35.99,80.07c-.28,0-.63-.06-1.05-.18s-.86-.29-1.3-.53c-4.99-2.81-9.21-5.31-12.64-7.49s-6.19-4.29-8.28-6.33c-2.09-2.04-3.6-4.24-4.54-6.61-.94-2.37-1.41-5.16-1.41-8.37v-26.89c0-1.85.39-3.18,1.18-3.99s1.92-1.52,3.39-2.13c.82-.35,1.96-.81,3.41-1.37,1.45-.56,3.06-1.17,4.82-1.83s3.51-1.31,5.26-1.95,3.35-1.22,4.8-1.72c1.45-.5,2.6-.87,3.45-1.11.47-.12.95-.23,1.44-.35s.98-.18,1.48-.18.99.05,1.49.16.99.23,1.46.37c.82.28,1.96.68,3.41,1.2s3.06,1.09,4.82,1.72,3.51,1.27,5.26,1.92,3.35,1.24,4.8,1.79,2.59,1,3.41,1.35c1.5.63,2.64,1.35,3.41,2.14s1.16,2.12,1.16,3.97v26.89c0,3.21-.46,6.01-1.39,8.38s-2.43,4.59-4.52,6.63c-2.09,2.04-4.85,4.14-8.28,6.31s-7.66,4.66-12.67,7.47c-.45.23-.88.41-1.3.53s-.77.18-1.05.18l-.02.02ZM35.99,73.71c.28,0,.59-.06.91-.19s.75-.35,1.27-.65c4.05-2.46,7.46-4.58,10.21-6.36s4.96-3.47,6.61-5.06,2.84-3.34,3.55-5.24,1.07-4.21,1.07-6.93v-24.5c0-.59-.08-1.03-.23-1.34s-.46-.54-.93-.7c-1.1-.38-2.36-.81-3.78-1.32s-2.91-1.04-4.46-1.6-3.12-1.13-4.68-1.71-3.04-1.12-4.45-1.65-2.64-1-3.69-1.42c-.28-.12-.54-.2-.77-.25s-.45-.07-.63-.07-.4.02-.63.07-.49.13-.77.25c-1.05.42-2.29.89-3.69,1.41-1.4.52-2.9,1.05-4.46,1.6-1.57.55-3.14,1.11-4.71,1.67s-3.06,1.1-4.46,1.62-2.64.98-3.69,1.41c-.49.19-.81.43-.97.72-.15.29-.23.73-.23,1.32v24.5c0,2.72.36,5.03,1.09,6.93s1.91,3.65,3.55,5.26c1.64,1.61,3.84,3.29,6.59,5.06s6.16,3.88,10.21,6.35c.52.3.94.52,1.27.65.33.13.63.19.91.19v-.02Z"/>
    </g>
  </g>
</svg>