<?xml version="1.0" encoding="UTF-8"?>
<svg id="Layer_1" xmlns="http://www.w3.org/2000/svg" version="1.1" viewBox="0 0 108 108">
  <!-- Generator: Adobe Illustrator 29.6.0, SVG Export Plug-In . SVG Version: 2.1.1 Build 180)  -->
  <defs>
    <style>
      .st0 {
        fill: #707070;
      }

      .st1 {
        fill: #caa38a;
      }

      .st2 {
        fill: #f5f5f5;
      }
    </style>
  </defs>
  <circle id="Ellipse_9" class="st2" cx="54" cy="54" r="54"/>
  <path id="Ellipse_9_-_Outline" class="st0" d="M54,1C24.72,1.02,1,24.77,1.02,54.05c0,21.28,12.75,40.49,32.35,48.79,27.01,11.31,58.07-1.42,69.37-28.43,11.25-26.88-1.3-57.81-28.11-69.24-6.53-2.76-13.54-4.18-20.63-4.16M54,0c29.82,0,54,24.18,54,54s-24.18,54-54,54S0,83.82,0,54,24.18,0,54,0Z"/>
  <path class="st1" d="M23.25,69.89c-.48,0-.88-.17-1.22-.52-.34-.35-.51-.76-.51-1.23s.17-.88.51-1.22c.34-.34.75-.51,1.22-.51h61.47c.48,0,.89.17,1.23.51.35.34.52.75.52,1.22s-.17.89-.52,1.23c-.35.35-.76.52-1.23.52H23.25ZM30.04,61.46l-7.39-7.37c-.29-.27-.43-.6-.43-.98s.14-.71.43-.98c.27-.29.6-.43.98-.43s.71.14.98.43l7.39,7.35c.29.27.43.6.43.98s-.14.72-.43,1c-.27.29-.6.43-.98.43s-.71-.14-.98-.43ZM22.65,61.46c-.29-.29-.43-.62-.43-.99s.14-.71.43-.99l7.39-7.35c.27-.27.6-.41.98-.42.38,0,.71.13.98.42.29.27.43.6.43.98s-.14.71-.43.98l-7.39,7.37c-.27.27-.6.41-.98.42-.38,0-.71-.13-.98-.42ZM43.18,77.8c-2.03,0-3.54-.56-4.54-1.67-.99-1.12-1.49-2.55-1.49-4.29,0-1.63.41-3.42,1.24-5.36.83-1.95,2-3.88,3.51-5.79,1.51-1.92,3.32-3.67,5.42-5.26,2.1-1.59,4.42-2.87,6.98-3.84s5.28-1.45,8.16-1.45c1.4,0,2.51.32,3.34.96.83.64,1.24,1.5,1.24,2.58,0,.58-.08,1.14-.24,1.7-.16.55-.32,1.06-.48,1.51-.16.45-.24.81-.24,1.07,0,.25.11.37.32.37.3,0,.76-.24,1.37-.73s1.32-1.1,2.12-1.83,1.65-1.46,2.54-2.18c.89-.73,1.78-1.34,2.67-1.83.89-.49,1.7-.74,2.45-.74.86,0,1.5.24,1.9.72s.68,1.08.83,1.79.26,1.43.33,2.14c.07.71.19,1.31.37,1.79.17.48.5.72.97.72.38,0,.73-.1,1.06-.31.33-.21.68-.31,1.06-.31.42,0,.75.14,1.01.43.25.29.38.64.38,1.06,0,.33-.08.63-.25.89-.17.26-.38.48-.64.65-.45.29-.94.5-1.47.63-.53.13-1.02.2-1.47.2-1.08,0-1.9-.23-2.46-.68-.56-.45-.96-1.02-1.19-1.69s-.39-1.34-.48-2.01c-.09-.67-.18-1.23-.28-1.69s-.31-.68-.63-.68c-.36,0-.84.25-1.45.76-.6.5-1.3,1.13-2.07,1.87-.78.74-1.61,1.49-2.51,2.24s-1.8,1.38-2.71,1.88c-.92.5-1.81.76-2.69.76-.79,0-1.46-.23-1.99-.7-.53-.47-.8-1.11-.8-1.93,0-.62.08-1.21.25-1.77s.33-1.12.51-1.67.26-1.15.26-1.78c0-.59-.4-.89-1.19-.89-2.51,0-4.86.42-7.07,1.24-2.2.83-4.2,1.92-5.99,3.27s-3.33,2.82-4.61,4.41c-1.29,1.59-2.28,3.16-2.98,4.71-.7,1.56-1.05,2.94-1.05,4.15,0,.98.25,1.78.75,2.39.5.61,1.26.92,2.3.92,1.58,0,3.05-.58,4.41-1.74,1.35-1.16,2.54-2.77,3.54-4.82,1.01-2.05,1.79-4.43,2.34-7.12s.83-5.58.83-8.65c0-2.56-.25-4.98-.76-7.23-.5-2.25-1.23-4.24-2.18-5.95s-2.1-3.06-3.44-4.04c-1.34-.98-2.84-1.47-4.5-1.47-1.24,0-2.35.33-3.34.99-.99.66-1.77,1.56-2.35,2.68s-.86,2.39-.86,3.8c0,2.18.44,4.18,1.32,6.02.88,1.84,2.01,3.49,3.38,4.95,1.38,1.46,2.81,2.72,4.31,3.76,1.5,1.04,2.87,1.87,4.11,2.48.32.16.55.36.69.59.14.24.22.49.22.75,0,.38-.14.71-.43,1-.29.3-.65.44-1.08.44-.29,0-.56-.07-.82-.19-1.53-.72-3.02-1.58-4.49-2.58-1.46-1-2.83-2.13-4.1-3.37s-2.38-2.6-3.34-4.06c-.96-1.46-1.71-3.02-2.26-4.66-.55-1.64-.82-3.35-.82-5.12,0-2.02.44-3.84,1.31-5.46.87-1.62,2.05-2.91,3.53-3.87,1.48-.96,3.16-1.44,5.01-1.44,2.16,0,4.11.57,5.85,1.71s3.22,2.71,4.46,4.72,2.19,4.34,2.85,7c.66,2.66,1,5.51,1,8.55,0,3.59-.35,6.93-1.05,10.03-.7,3.1-1.7,5.81-3,8.15-1.3,2.33-2.86,4.16-4.68,5.47s-3.84,1.97-6.07,1.97Z"/>
</svg>