<svg xmlns="http://www.w3.org/2000/svg" width="153.599" height="153.599" viewBox="0 0 153.599 153.599">
  <path id="Path_8" data-name="Path 8" d="M129.6,48a23.46,23.46,0,0,1,16.875,7.05,26.142,26.142,0,0,1,5.175,7.65A22.474,22.474,0,0,1,153.6,72a23.751,23.751,0,0,1-5.4,15.15,25.988,25.988,0,0,1-6.075,5.325,22.162,22.162,0,0,1-7.725,3.075v7.65a51,51,0,0,1-1.65,12.975,56.3,56.3,0,0,1-4.65,12,45.752,45.752,0,0,1-7.35,10.275,53.266,53.266,0,0,1-9.675,8.025,42.938,42.938,0,0,1-11.625,5.25A49.279,49.279,0,0,1,86.4,153.6a45.005,45.005,0,0,1-13.05-1.875,46.523,46.523,0,0,1-11.55-5.25,49.459,49.459,0,0,1-9.675-8.025,48.128,48.128,0,0,1-7.35-10.275,57.545,57.545,0,0,1-4.725-11.925A47.187,47.187,0,0,1,38.4,103.2V86.025A44.789,44.789,0,0,1,22.05,81.6,38.155,38.155,0,0,1,9.975,72.15,39.353,39.353,0,0,1,2.55,58.575,56.082,56.082,0,0,1,0,41.85V0H24a4.613,4.613,0,0,1,3.375,1.425A4.613,4.613,0,0,1,28.8,4.8a4.613,4.613,0,0,1-1.425,3.375A4.613,4.613,0,0,1,24,9.6H9.6V41.85a44.885,44.885,0,0,0,2.175,14.4A28.835,28.835,0,0,0,28.8,74.325,38.421,38.421,0,0,0,43.2,76.8,39.176,39.176,0,0,0,57,74.475,29.147,29.147,0,0,0,67.575,67.8,31.022,31.022,0,0,0,74.4,57.3a35.939,35.939,0,0,0,2.4-13.875V9.6H62.4a4.613,4.613,0,0,1-3.375-1.425A4.613,4.613,0,0,1,57.6,4.8a4.613,4.613,0,0,1,1.425-3.375A4.613,4.613,0,0,1,62.4,0h24V41.85a53.054,53.054,0,0,1-2.55,16.725A41.078,41.078,0,0,1,76.425,72.15a37.307,37.307,0,0,1-12,9.45A44.916,44.916,0,0,1,48,86.025V103.2a42.158,42.158,0,0,0,2.85,15.375,41.605,41.605,0,0,0,8.025,13.05,38.479,38.479,0,0,0,12.15,9A36.267,36.267,0,0,0,86.4,144a34.658,34.658,0,0,0,15.3-3.375,40.059,40.059,0,0,0,12.15-9,40.7,40.7,0,0,0,8.025-12.975A43.491,43.491,0,0,0,124.8,103.2v-7.65a24.277,24.277,0,0,1-7.725-3.075A24.611,24.611,0,0,1,111,87.225a23.205,23.205,0,0,1-3.975-7.05A24.049,24.049,0,0,1,105.6,72a23.242,23.242,0,0,1,1.875-9.3,24.067,24.067,0,0,1,5.1-7.575,24.887,24.887,0,0,1,7.65-5.175A22.992,22.992,0,0,1,129.6,48m0,38.4a14.127,14.127,0,0,0,5.625-1.125,14.324,14.324,0,0,0,7.65-7.65,14.625,14.625,0,0,0,0-11.25,14.324,14.324,0,0,0-7.65-7.65,14.625,14.625,0,0,0-11.25,0,14.324,14.324,0,0,0-7.65,7.65,14.625,14.625,0,0,0,0,11.25,14.324,14.324,0,0,0,7.65,7.65A14.127,14.127,0,0,0,129.6,86.4" fill="#595551"/>
</svg>
