<?xml version="1.0" encoding="UTF-8"?>
<svg id="Layer_1" xmlns="http://www.w3.org/2000/svg" version="1.1" viewBox="0 0 108 108">
  <!-- Generator: Adobe Illustrator 29.6.0, SVG Export Plug-In . SVG Version: 2.1.1 Build 57)  -->
  <defs>
    <style>
      .st0 {
        fill: #707070;
      }

      .st1 {
        fill: #caa38a;
      }

      .st2 {
        isolation: isolate;
      }

      .st3 {
        fill: #f5f5f5;
      }
    </style>
  </defs>
  <circle id="Ellipse_7" class="st3" cx="54" cy="54" r="54"/>
  <path id="Ellipse_7_-_Outline" class="st0" d="M54,1C24.72,1.02,1,24.77,1.02,54.05c.01,21.28,12.75,40.49,32.35,48.79,27.01,11.31,58.07-1.42,69.37-28.43,11.25-26.88-1.3-57.81-28.11-69.24-6.53-2.76-13.54-4.18-20.63-4.16M54,0c29.82,0,54,24.18,54,54s-24.18,54-54,54S0,83.82,0,54,24.18,0,54,0Z"/>
  <g id="_" class="st2">
    <g class="st2">
      <path class="st1" d="M30.17,67.07l5.18-20.93c.42-1.72,1.23-3.05,2.43-4.01s2.67-1.43,4.42-1.43h21.61c1.75,0,3.22.48,4.42,1.43s2,2.29,2.43,4.01l5.18,20.93c.61,2.44.43,4.33-.55,5.67s-2.64,2.02-5,2.02h-34.55c-2.36,0-4.03-.67-5-2.02s-1.16-3.23-.55-5.67ZM53,38.6c-1.22,0-2.34-.3-3.35-.9s-1.83-1.41-2.44-2.41-.91-2.12-.91-3.34.3-2.34.91-3.35,1.42-1.83,2.44-2.44,2.13-.91,3.35-.91,2.31.3,3.33.91,1.83,1.42,2.45,2.44.93,2.13.93,3.35-.3,2.33-.91,3.34-1.42,1.81-2.44,2.41-2.13.9-3.35.9ZM53,35.34c.94,0,1.74-.34,2.41-1.01s1.01-1.47,1.01-2.39-.34-1.73-1.02-2.41-1.48-1.03-2.4-1.03-1.74.34-2.41,1.03-1.01,1.49-1.01,2.41.34,1.72,1.01,2.39,1.48,1.01,2.41,1.01ZM51.1,43.45v-6.68h3.77v6.68h-3.77Z"/>
    </g>
  </g>
</svg>